<?xml version="1.0" encoding="utf-8"?>
<!-- Generator: Adobe Illustrator 17.0.0, SVG Export Plug-In . SVG Version: 6.00 Build 0)  -->
<!DOCTYPE svg PUBLIC "-//W3C//DTD SVG 1.1//EN" "http://www.w3.org/Graphics/SVG/1.1/DTD/svg11.dtd">
<svg version="1.1" id="Слой_1" xmlns="http://www.w3.org/2000/svg" xmlns:xlink="http://www.w3.org/1999/xlink" x="0px" y="0px"
	 width="68px" height="68px" viewBox="0 0 68 68" enable-background="new 0 0 68 68" xml:space="preserve">
<g>
	<path fill="#FFFFFF" d="M33.952,1.536c9.054,0,17.255,3.664,23.169,9.598c5.933,5.933,9.598,14.116,9.598,23.169
		c0,9.054-3.665,17.236-9.598,23.169c-5.915,5.933-14.116,9.598-23.169,9.598c-9.036,0-17.236-3.665-23.169-9.598
		C4.85,51.54,1.184,43.357,1.184,34.304c0-9.054,3.665-17.236,9.598-23.169C16.716,5.2,24.917,1.536,33.952,1.536L33.952,1.536z
		 M55.326,12.948c-5.48-5.461-13.027-8.855-21.374-8.855c-8.328,0-15.894,3.393-21.355,8.855C7.136,18.41,3.743,25.958,3.743,34.304
		c0,8.346,3.393,15.894,8.855,21.373c5.461,5.462,13.027,8.836,21.355,8.836c8.346,0,15.894-3.375,21.374-8.836
		c5.461-5.479,8.836-13.027,8.836-21.373C64.162,25.958,60.787,18.41,55.326,12.948L55.326,12.948z"/>
	<path fill-rule="evenodd" clip-rule="evenodd" fill="#FFFFFF" d="M25.57,34.304c0-4.627,3.756-8.401,8.383-8.401
		c4.645,0,8.401,3.774,8.401,8.401c0,4.644-3.756,8.401-8.401,8.401C29.326,42.704,25.57,38.948,25.57,34.304L25.57,34.304z
		 M42.625,17.884H25.298c-4.264,0-7.766,3.483-7.766,7.766v17.327c0,4.263,3.502,7.765,7.766,7.765h17.327
		c4.282,0,7.765-3.502,7.765-7.765V25.649C50.391,21.367,46.907,17.884,42.625,17.884L42.625,17.884z M25.298,19.825h17.327
		c3.212,0,5.824,2.612,5.824,5.824v17.327c0,3.211-2.612,5.823-5.824,5.823H25.298c-3.212,0-5.824-2.612-5.824-5.823V25.649
		C19.474,22.437,22.086,19.825,25.298,19.825L25.298,19.825z M44.349,22.274c-0.944,0-1.705,0.762-1.705,1.705
		c0,0.944,0.762,1.706,1.705,1.706c0.943,0,1.706-0.762,1.706-1.706C46.055,23.036,45.292,22.274,44.349,22.274L44.349,22.274z
		 M44.548,34.304c0-5.843-4.735-10.596-10.596-10.596c-5.843,0-10.596,4.753-10.596,10.596c0,5.861,4.753,10.596,10.596,10.596
		C39.813,44.9,44.548,40.164,44.548,34.304L44.548,34.304z"/>
</g>
</svg>
