<?xml version="1.0" encoding="utf-8"?>
<!-- Generator: Adobe Illustrator 17.0.0, SVG Export Plug-In . SVG Version: 6.00 Build 0)  -->
<!DOCTYPE svg PUBLIC "-//W3C//DTD SVG 1.1//EN" "http://www.w3.org/Graphics/SVG/1.1/DTD/svg11.dtd">
<svg version="1.1" id="Слой_1" xmlns="http://www.w3.org/2000/svg" xmlns:xlink="http://www.w3.org/1999/xlink" x="0px" y="0px"
	 width="68px" height="68px" viewBox="0 0 68 68" enable-background="new 0 0 68 68" xml:space="preserve">
<g>
	<path fill="#FFFFFF" d="M33.64,1.325c9.151,0,17.421,3.704,23.418,9.701c5.996,5.997,9.701,14.267,9.701,23.417
		c0,9.15-3.704,17.421-9.701,23.417c-5.996,5.997-14.267,9.701-23.418,9.701c-9.15,0-17.421-3.704-23.417-9.701
		c-5.996-5.996-9.701-14.267-9.701-23.417c0-9.151,3.704-17.421,9.701-23.417C16.219,5.028,24.489,1.325,33.64,1.325L33.64,1.325z
		 M55.242,12.859C49.704,7.339,42.075,3.91,33.64,3.91c-8.435,0-16.064,3.43-21.584,8.949c-5.52,5.52-8.949,13.148-8.949,21.584
		c0,8.436,3.429,16.064,8.949,21.602c5.52,5.52,13.149,8.931,21.584,8.931c8.435,0,16.064-3.411,21.602-8.931
		c5.52-5.538,8.931-13.166,8.931-21.602C64.173,26.008,60.762,18.379,55.242,12.859L55.242,12.859z"/>
	<path fill-rule="evenodd" clip-rule="evenodd" fill="#FFFFFF" d="M36.171,27.676v-2.714c0-1.302,0.862-1.614,1.486-1.614
		c0.605,0,3.796,0,3.796,0v-5.795h-5.226c-5.813,0-7.115,4.291-7.115,7.078v3.044h-3.374v4.089v2.678h3.411
		c0,7.684,0,16.908,0,16.908h6.767c0,0,0-9.353,0-16.908h5.006l0.22-2.659l0.403-4.108H36.171z"/>
</g>
</svg>
