<?xml version="1.0" encoding="utf-8"?>
<!-- Generator: Adobe Illustrator 17.0.0, SVG Export Plug-In . SVG Version: 6.00 Build 0)  -->
<!DOCTYPE svg PUBLIC "-//W3C//DTD SVG 1.1//EN" "http://www.w3.org/Graphics/SVG/1.1/DTD/svg11.dtd">
<svg version="1.1" id="Слой_1" xmlns="http://www.w3.org/2000/svg" xmlns:xlink="http://www.w3.org/1999/xlink" x="0px" y="0px"
	 width="68px" height="68px" viewBox="0 0 68 68" enable-background="new 0 0 68 68" xml:space="preserve">
<g>
	<path fill="#FFFFFF" d="M33.865,1.167c9.078,0,17.282,3.693,23.232,9.623c5.949,5.949,9.623,14.172,9.623,23.25
		c0,9.059-3.675,17.282-9.623,23.231c-5.949,5.931-14.154,9.624-23.232,9.624c-9.078,0-17.283-3.693-23.231-9.624
		C4.684,51.323,1.009,43.1,1.009,34.041c0-9.078,3.675-17.301,9.625-23.25C16.582,4.86,24.786,1.167,33.865,1.167L33.865,1.167z
		 M55.277,12.61C49.8,7.134,42.234,3.75,33.865,3.75c-8.37,0-15.936,3.383-21.413,8.86c-5.493,5.476-8.878,13.062-8.878,21.431
		c0,8.35,3.384,15.936,8.878,21.412c5.476,5.476,13.043,8.878,21.413,8.878c8.369,0,15.936-3.402,21.412-8.878
		c5.494-5.476,8.877-13.062,8.877-21.412C64.154,25.672,60.771,18.086,55.277,12.61L55.277,12.61z"/>
	<path fill-rule="evenodd" clip-rule="evenodd" fill="#FFFFFF" d="M50.638,23.798c-1.219,0.528-2.546,0.892-3.947,1.073
		c1.436-0.855,2.528-2.165,3.038-3.766c-1.328,0.782-2.82,1.346-4.384,1.655c-1.239-1.327-3.038-2.146-5.04-2.146
		c-3.784,0-6.877,3.038-6.877,6.767c0,0.546,0.092,1.055,0.201,1.547c-5.73-0.273-10.806-2.966-14.191-7.077
		c-0.582,1.019-0.945,2.165-0.945,3.402c0,2.365,1.237,4.439,3.056,5.64c-1.127-0.018-2.183-0.328-3.11-0.837
		c0,0.037,0,0.055,0,0.091c0,0.873,0.164,1.674,0.472,2.438c0.838,2.129,2.748,3.73,5.059,4.184
		c-0.601,0.164-1.183,0.254-1.819,0.254c-0.437,0-0.873-0.054-1.293-0.145c0.892,2.693,3.421,4.657,6.423,4.73
		c-2.366,1.819-5.313,2.892-8.533,2.892c-0.564,0-1.091-0.037-1.655-0.091c3.056,1.91,6.676,3.038,10.551,3.038
		c10.751,0,17.392-7.441,19.119-15.173c0.31-1.382,0.455-2.747,0.455-4.093c0-0.291,0-0.6,0-0.873
		C48.545,26.345,49.728,25.144,50.638,23.798L50.638,23.798z"/>
</g>
</svg>
